<?xml version="1.0" encoding="UTF-8" standalone="no" ?>
<!DOCTYPE svg PUBLIC "-//W3C//DTD SVG 1.1//EN" "http://www.w3.org/Graphics/SVG/1.1/DTD/svg11.dtd">
<svg xmlns="http://www.w3.org/2000/svg" xmlns:xlink="http://www.w3.org/1999/xlink" version="1.1" width="1080" height="1080" viewBox="0 0 1080 1080" xml:space="preserve">
<desc>Created with Fabric.js 5.2.4</desc>
<defs>
</defs>
<rect x="0" y="0" width="100%" height="100%" fill="transparent"></rect>
<g transform="matrix(1 0 0 1 540 540)" id="4a254575-007f-48a5-8d2c-8eb3e22dead1"  >
</g>
<g transform="matrix(1 0 0 1 540 540)" id="73a670d5-57c0-4a88-9921-f167c209c382"  >
<rect style="stroke: none; stroke-width: 1; stroke-dasharray: none; stroke-linecap: butt; stroke-dashoffset: 0; stroke-linejoin: miter; stroke-miterlimit: 4; fill: rgb(255,255,255); fill-rule: nonzero; opacity: 1; visibility: hidden;" vector-effect="non-scaling-stroke"  x="-540" y="-540" rx="0" ry="0" width="1080" height="1080" />
</g>
<g transform="matrix(3.74 0 0 3.73 543.66 532.28)" id="17ee12a7-b57d-4ed9-be24-9c4614eb4dc1"  >
<circle style="stroke: rgb(0,0,0); stroke-width: 0; stroke-dasharray: none; stroke-linecap: butt; stroke-dashoffset: 0; stroke-linejoin: miter; stroke-miterlimit: 4; fill: rgb(255,255,255); fill-rule: nonzero; opacity: 1;" vector-effect="non-scaling-stroke"  cx="0" cy="0" r="35" />
</g>
<g transform="matrix(1.86 0 0 1.83 540.16 540)"  >
<path style="stroke: rgb(0,0,0); stroke-width: 0; stroke-dasharray: none; stroke-linecap: butt; stroke-dashoffset: 0; stroke-linejoin: miter; stroke-miterlimit: 4; fill: rgb(0,0,0); fill-rule: nonzero; opacity: 1;" vector-effect="non-scaling-stroke"  transform=" translate(-34.89, -34.89)" d="M 32.986 66.143 C 30.421999999999997 64.789 29.278 64.778 27.176999999999996 66.379 C 26.862999999999996 66.30300000000001 26.548999999999996 66.223 26.236999999999995 66.137 C 25.993999999999996 65.063 26.381999999999994 63.979 27.340999999999994 63.151 C 28.663999999999994 62.012 30.935999999999993 61.817 32.217999999999996 62.73500000000001 C 33.326 63.525 33.588 64.693 32.986 66.143 z M 42.394 61.532 C 41.158 60.863 39.245999999999995 61.236 37.929 62.403999999999996 C 36.648 63.54 36.251000000000005 64.96199999999999 36.873000000000005 66.648 C 38.62800000000001 64.408 40.649 63.388 43.29600000000001 64.788 C 43.736 63.075 43.448 62.1 42.394 61.532 z M 21.65 63.173 C 20.682 62.415 19.215999999999998 62.217 17.99 62.584 C 19.511 63.507000000000005 21.113999999999997 64.309 22.784 64.97500000000001 C 22.669 64.295 22.289 63.674 21.65 63.173 z M 51.105 59.695 C 49.531 59.521 48.391999999999996 60.422 47.476 61.578 C 46.652 62.616 46.187 63.751000000000005 46.589999999999996 65.137 C 46.88399999999999 65.024 47.174 64.908 47.462999999999994 64.788 C 48.54899999999999 63.513999999999996 49.724 62.528999999999996 51.45799999999999 62.784 C 51.81699999999999 62.571999999999996 52.17499999999999 62.355 52.52199999999999 62.132999999999996 C 52.816 60.814 52.304 59.829 51.105 59.695 z M 49.109 53.766 C 49.187000000000005 52.247 48.658 51.214 47.345 50.806999999999995 C 45.748999999999995 50.31099999999999 44.446999999999996 51.001999999999995 43.412 52.184 C 42.375 53.372 41.881 54.724999999999994 42.342999999999996 56.122 C 43.29 55.199 44.126999999999995 54.146 45.187 53.414 C 46.424 52.555 47.795 52.956 49.109 53.766 z M 54.058 42.518 C 53.949 41.123 53.619 39.956 52.33 39.344 C 51.184 38.797000000000004 50.144999999999996 39.127 49.229 39.923 C 47.961 41.024 47.536 42.620000000000005 48.025999999999996 44.372 C 49.851 41.109 51.595 40.54 54.058 42.518 z M 52.365 54.766 C 53.886 51.452999999999996 55.228 50.629 57.681000000000004 51.579 C 57.697 49.558 56.660000000000004 48.482 55.193000000000005 48.866 C 53.021 49.432 51.478 52.65 52.365 54.766 z M 61.28 40.441 C 61.15 39.886 61.168 39.375 60.926 39.062000000000005 C 60.412 38.398 59.797000000000004 37.398 59.162 37.351000000000006 C 58.428 37.294000000000004 57.418 37.947 56.897999999999996 38.589000000000006 C 55.982 39.72800000000001 55.952 41.17300000000001 56.251 42.745000000000005 C 57.754 39.331 58.892 38.797 61.28 40.441 z M 59.677 25.923 C 58.425 26.110999999999997 57.832 27.747 58.211999999999996 29.973999999999997 C 59.644 27.599999999999998 60.45099999999999 27.502999999999997 62.541 29.562999999999995 C 62.22 27.204 61.009 25.727 59.677 25.923 z M 33.424 52.578 C 31.779 53.622 31.118 55.56 31.811 57.316 C 33.229 53.329 34.675 52.377 38.247 53.24 C 36.902 51.742 35.068 51.537 33.424 52.578 z M 22.131 53.236 C 20.609 54.309999999999995 20.126 56.236 21.004 57.724 C 21.313000000000002 54.226 23.511000000000003 52.873 27.252000000000002 53.879 C 25.918 52.33 23.793 52.062 22.131 53.236 z M 43.769 41.934 C 42.675 40.619 40.974 40.311 39.482 41.116 C 37.751 42.05 36.775 44.606 37.711999999999996 46.295 C 38.273 42.473 40.207 41.117 43.769 41.934 z M 55.353 28.83 C 54.443000000000005 27.863 53.482 27.47 52.331 28.145 C 50.986000000000004 28.932 50.49 30.913 51.137 32.68 C 51.745 29.366 52.595 28.566 55.353 28.83 z M 60.599 16.398 C 60.625 16.288999999999998 60.653999999999996 16.18 60.681 16.07 C 60.021 15.94 59.108999999999995 15.472 58.744 15.743 C 57.656 16.553 58.059 17.753 58.423 19.234 C 58.54 16.76 58.937 16.308 60.599 16.398 z M 69.754 34.926 C 69.754 54.151 54.11500000000001 69.787 34.89300000000001 69.787 C 15.669000000000008 69.787 0.03200000000001069 54.14800000000001 0.03200000000001069 34.92600000000001 C 0.03200000000001069 23.445000000000007 5.6140000000000105 13.24100000000001 14.204000000000011 6.887000000000008 C 19.978 2.564 27.143 0 34.894 0 C 42.408 0 49.370999999999995 2.411 55.049 6.496 C 63.943 12.82 69.754 23.207 69.754 34.926 z M 64.245 48.729 C 64.23400000000001 48.168 63.918000000000006 47.541 63.777 46.954 C 62.824 49.274 62.648 51.921 58.959 52.338 C 59.643 53.209 60.081 54.28 60.628 54.339 C 60.703 54.347 60.785 54.345 60.868 54.339999999999996 C 62.172 52.596 63.306 50.717 64.245 48.729 z M 66.631 41.637 C 66.902 40.352000000000004 67.097 39.04 67.211 37.705 C 67.101 36.855 66.845 36.068 66.425 35.5 C 66.036 37.547 66.529 40.102000000000004 63.285999999999994 40.705 C 63.471999999999994 41.135 63.623 41.699999999999996 63.931999999999995 42.163 C 64.55499999999999 43.099999999999994 65.40899999999999 43.126 66.163 42.312 C 66.341 42.124 66.498 41.893 66.631 41.637 z M 34.894 67.365 C 42.257999999999996 67.365 49.055 64.896 54.506 60.74699999999999 C 54.258 60.93399999999999 54.01 61.11999999999999 53.755 61.300999999999995 C 53.823 61.181999999999995 53.891000000000005 61.06099999999999 53.962 60.946999999999996 C 54.584 59.958 55.242000000000004 58.709999999999994 56.202000000000005 58.269 C 58.745000000000005 57.109 59.169000000000004 55.341 58.739000000000004 52.992999999999995 C 58.306000000000004 50.626 58.650000000000006 48.538999999999994 60.411 46.79599999999999 C 62.344 44.88099999999999 62.779 42.57899999999999 62.234 39.98299999999999 C 61.827000000000005 38.04499999999999 62.39 36.31099999999999 63.718 34.89299999999999 C 64.474 34.082999999999984 65.361 33.353999999999985 66.302 32.76799999999999 C 66.646 32.551999999999985 66.94500000000001 32.31899999999999 67.20200000000001 32.070999999999984 C 67.01400000000001 29.938999999999982 66.62200000000001 27.865999999999985 66.04100000000001 25.871999999999986 C 65.35100000000001 25.459999999999987 64.86000000000001 25.818999999999985 64.24600000000001 26.864999999999984 C 64.17900000000002 26.831999999999983 64.05400000000002 26.796999999999983 64.05400000000002 26.764999999999983 C 64.06800000000001 25.608999999999984 63.55600000000002 23.945999999999984 64.95900000000002 23.622999999999983 C 65.07400000000001 23.596999999999984 65.17900000000002 23.586999999999982 65.27900000000001 23.581999999999983 C 60.671 11.274 48.79 2.489 34.894 2.489 C 17.005999999999997 2.489 2.455999999999996 17.041 2.455999999999996 34.928 C 2.455999999999996 42.775999999999996 5.257999999999996 49.980999999999995 9.911999999999995 55.596 C 9.936999999999996 54.462999999999994 10.443999999999996 53.577999999999996 11.376999999999995 52.979 C 12.954999999999995 51.964999999999996 14.664999999999996 52.235 16.537999999999997 54.049 C 14.884999999999996 53.324 13.558999999999997 53.059 12.235999999999997 53.795 C 11.250999999999998 54.344 10.696999999999997 55.139 10.434999999999997 56.21 C 11.877999999999997 57.867000000000004 13.487999999999996 59.376 15.234999999999996 60.71 C 16.120999999999995 61.379 17.038999999999994 62.01 17.990999999999996 62.585 C 17.983999999999995 62.588 17.979999999999997 62.59 17.971999999999998 62.592 C 22.902 65.618 28.698 67.365 34.894 67.365 z" stroke-linecap="round" />
</g>
<g transform="matrix(1 0 0 1 540 540)"  >
<g style="" vector-effect="non-scaling-stroke"   >
		<g transform="matrix(1 0 0 1 0 -96.18)"  >
<path style="stroke: none; stroke-width: 33.8; stroke-dasharray: none; stroke-linecap: round; stroke-dashoffset: 0; stroke-linejoin: miter; stroke-miterlimit: 4; fill: #0FA9CA; fill-rule: nonzero; opacity: 1;" vector-effect="non-scaling-stroke"  transform=" translate(-193.53, -96.82)" d="M 62.812 48.073 L 79.25 93.261 C 79.214493 93.299376 79.191711 93.347578 79.15625 93.386 L 79.28125 93.761 C 72.36885 101.2949 66.15025 109.60799999999999 60.78125 118.667 L 11.28125 117.3232 C 10.29967 119.5473 9.29605 121.7688 8.40625 124.0107 C 7.19395 127.065 6.0752500000000005 130.1157 5.03125 133.19819999999999 C 3.9875499999999997 136.2808 3.00205 139.4054 2.12505 142.51069999999999 C 1.3393799999999998 145.2928 0.65255 148.0606 0.00004999999999988347 150.85449999999997 L 40.50005 177.94849999999997 C 40.450810000000004 178.39270999999997 40.482659 178.84745999999996 40.43755 179.29229999999995 L 40.7188 179.47979999999995 C 40.2531 184.20339999999996 40.09729 188.92779999999996 40.0938 193.63579999999996 L 129.0318 193.63579999999996 C 129.049622 190.79859999999996 129.28256000000002 187.95779999999996 129.68805 185.16699999999997 C 130.09351 182.3763 130.68885 179.62229999999997 131.46925000000002 176.91699999999997 C 132.24965000000003 174.21169999999998 133.20145000000002 171.56049999999996 134.34425000000002 168.97949999999997 C 135.48705 166.39849999999998 136.82055000000003 163.89729999999997 138.31305 161.47949999999997 C 139.80554999999998 159.06169999999997 141.45235 156.7265 143.28185 154.51069999999999 C 145.11135 152.29489999999998 147.12805 150.2042 149.28185 148.22949999999997 C 151.43564999999998 146.25469999999999 153.72254999999998 144.39319999999998 156.18805 142.69829999999996 C 158.65355000000002 141.00339999999994 161.29845 139.44959999999995 164.06305 138.07329999999996 C 166.03595 137.09114999999997 168.01075 136.24539999999996 170.03185 135.47949999999997 C 172.05294999999998 134.71359999999999 174.10205 134.03359999999998 176.15685 133.47949999999997 C 178.21165 132.92539999999997 180.27034999999998 132.48271999999997 182.34435 132.13569999999999 C 183.31880999999998 131.97268 184.30554999999998 131.90999 185.28185 131.79194999999999 C 185.61568 131.748981 185.94716 131.70482199999998 186.28185 131.66694999999999 C 187.05111 131.58595599999998 187.82505 131.43917 188.59435 131.38569999999999 C 189.34636 131.333454 190.09305 131.38060399999998 190.84435 131.35444999999999 C 191.69781 131.31758499999998 192.55055 131.29539799999998 193.40685 131.29194999999999 C 193.87551 131.29402499999998 194.3452 131.24861499999997 194.81305 131.26069999999999 C 195.1575 131.269611 195.50037 131.308887 195.84425000000002 131.32319999999999 C 197.56195000000002 131.380359 199.28145 131.53518 201.00045000000003 131.72944999999999 C 208.37885000000003 132.56328 215.74645000000004 134.58675 222.75045000000003 138.07324999999997 C 244.86745000000002 149.08324999999996 257.57645 170.93824999999998 257.71945000000005 193.63524999999998 L 346.75045000000006 193.63524999999998 C 346.7494730000001 188.90904999999998 346.53243000000003 184.15794999999997 346.06295000000006 179.41625 L 387.06295000000006 151.97825 C 387.0509870000001 151.925363 387.01253500000007 151.87489 387.00045000000006 151.822 C 386.28835000000004 148.6994 385.50245000000007 145.5836 384.62545000000006 142.47820000000002 C 383.74850000000004 139.37290000000002 382.79425000000003 136.2795 381.75045000000006 133.197 C 380.70675000000006 130.1144 379.5877500000001 127.0638 378.37545000000006 124.0095 C 377.49538000000007 121.7921 376.53495000000004 119.58030000000001 375.56295000000006 117.3845 L 326.43795000000006 118.7283 C 326.10946000000007 118.17309 325.71123000000006 117.6546 325.37545000000006 117.1033 L 325.06295000000006 117.1033 C 322.6550500000001 113.1502 320.09575000000007 109.328 317.37545000000006 105.6653 C 314.65515000000005 102.003 311.78845000000007 98.4954 308.78165000000007 95.1343 L 325.46965000000006 49.321299999999994 C 324.01965000000007 48.05669999999999 322.57845000000003 46.79039999999999 321.09465000000006 45.571299999999994 C 318.62745000000007 43.5442 316.1194500000001 41.564899999999994 313.56345000000005 39.665099999999995 C 311.00745 37.765299999999996 308.39015000000006 35.9359 305.75095000000005 34.165099999999995 C 303.11165000000005 32.3944 300.43655000000007 30.679999999999996 297.71975000000003 29.040099999999995 C 296.94247 28.570929999999997 296.16455 28.112429999999996 295.37595000000005 27.665099999999995 L 256.37595000000005 57.0091 C 255.80829000000006 56.7602 255.22645000000006 56.59439999999999 254.65715000000006 56.35285 L 254.56340000000006 56.41535 C 250.25820000000004 54.58445 245.86020000000005 52.97795 241.40740000000005 51.54035 C 236.95430000000005 50.10274999999999 232.44870000000006 48.86035 227.87640000000005 47.821549999999995 L 227.81390000000005 47.665299999999995 C 227.79171400000004 47.66036 227.77355600000004 47.63900099999999 227.75140000000005 47.634049999999995 L 213.72040000000004 1.0720499999999973 C 211.74700000000004 0.8684399999999972 209.79550000000003 0.6235999999999973 207.81420000000003 0.4782999999999973 C 204.62960000000004 0.24477999999999728 201.42090000000002 0.12389999999999729 198.22040000000004 0.04079999999999728 C 196.07980000000003 -0.014770000000002718 193.93150000000003 0.002499999999997282 191.78290000000004 0.009549999999997283 C 190.70730000000003 0.020969999999997282 189.63790000000003 -0.018310000000002716 188.56410000000005 0.009549999999997283 C 185.36370000000005 0.09264999999999728 182.18620000000004 0.24477999999999728 179.00160000000005 0.4782999999999973 C 177.98900000000006 0.5525199999999972 176.98070000000004 0.7013199999999973 175.97040000000004 0.7907999999999973 L 161.97040000000004 47.1658 C 151.81140000000005 49.2626 141.89940000000004 52.346199999999996 132.37640000000005 56.3846 L 93.00140000000005 26.790599999999998 C 91.68570000000004 27.544389999999996 90.36260000000004 28.2565 89.06390000000005 29.040599999999998 C 86.34700000000005 30.6805 83.67220000000005 32.3949 81.03270000000005 34.1656 C 78.39340000000004 35.9364 75.77620000000005 37.765699999999995 73.22020000000005 39.6656 C 70.66410000000005 41.5654 68.15620000000004 43.5447 65.68900000000005 45.571799999999996 C 64.70859000000004 46.37743999999999 63.77740000000005 47.243199999999995 62.81400000000005 48.071799999999996 z M 244.59199999999998 87.354 C 245.9518 87.448208 247.33319999999998 87.80554 248.6232 88.4478 C 253.7835 91.0167 255.84629999999999 97.2185 253.21699999999998 102.2598 C 250.58769999999998 107.3015 244.2523 109.2975 239.09199999999998 106.7286 C 233.93169999999998 104.1597 231.8689 97.98910000000001 234.4982 92.9476 C 236.4702 89.16629999999999 240.5126 87.07119999999999 244.5922 87.35379999999999 z M 95.71199999999999 134.635 C 97.0718 134.729208 98.4532 135.08653999999999 99.74319999999999 135.72879999999998 C 104.90359999999998 138.2977 106.96629999999999 144.46839999999997 104.33699999999999 149.50979999999998 C 101.70759999999999 154.55149999999998 95.3723 156.54749999999999 90.21199999999999 153.97859999999997 C 85.05169999999998 151.40969999999996 82.98879999999998 145.23909999999998 85.61819999999999 140.19759999999997 C 87.59019999999998 136.41629999999998 91.63259999999998 134.35249999999996 95.71219999999998 134.63509999999997 z" stroke-linecap="round" />
</g>
		<g transform="matrix(1 0 0 1 0 96.18)"  >
<path style="stroke: none; stroke-width: 33.8; stroke-dasharray: none; stroke-linecap: round; stroke-dashoffset: 0; stroke-linejoin: miter; stroke-miterlimit: 4; fill: #0FCA78; fill-rule: nonzero; opacity: 1;" vector-effect="non-scaling-stroke"  transform=" translate(-193.53, -289.18)" d="M 324.25 337.93 L 307.812 292.742 C 307.847492 292.70360900000003 307.870289 292.655391 307.90575 292.617 L 307.78075 292.242 C 314.69315 284.7081 320.91175 276.39500000000004 326.28075 267.336 L 375.78075 268.6798 C 376.76238 266.4557 377.76595000000003 264.2342 378.65575 261.9923 C 379.86805000000004 258.938 380.98675000000003 255.8873 382.03075 252.8048 C 383.07445 249.7222 384.05995 246.5976 384.93695 243.4923 C 385.72266 240.7102 386.40945000000005 237.9424 387.06195 235.1485 L 346.56195 208.05450000000002 C 346.61120500000004 207.61030000000002 346.579406 207.15554000000003 346.62445 206.71070000000003 L 346.3432 206.52320000000003 C 346.80890000000005 201.79960000000003 346.96472 197.07510000000002 346.9682 192.36720000000003 L 258.0312 192.36720000000003 C 258.013378 195.20440000000002 257.78041 198.04520000000002 257.37495 200.836 C 256.96946 203.6267 256.37415 206.38070000000002 255.59375 209.086 C 254.81329 211.7913 253.86155 214.44250000000002 252.71875 217.0235 C 251.57595 219.6045 250.24245 222.1057 248.74995 224.5235 C 247.25745000000003 226.9413 245.61065000000002 229.2765 243.78115000000003 231.4923 C 241.95165000000003 233.708 239.93495000000001 235.7988 237.78115000000003 237.7735 C 235.62735000000004 239.7483 233.34045000000003 241.6098 230.87495 243.30470000000003 C 228.40945000000002 244.99970000000002 225.76455 246.55340000000004 222.99995 247.92970000000003 C 221.02705 248.91182000000003 219.05225000000002 249.75760000000002 217.03115000000003 250.5235 C 215.01005000000004 251.28931 212.96095000000003 251.9694 210.90615000000003 252.5235 C 208.85135000000002 253.07758 206.79265000000004 253.52028 204.71865000000003 253.8673 C 203.74419000000003 254.03032 202.75745000000003 254.09301 201.78115000000003 254.21105 C 201.44732000000002 254.254019 201.11584000000002 254.298208 200.78115000000003 254.33605 C 200.01186 254.417044 199.23795 254.56383 198.46865000000003 254.6173 C 197.71664 254.669561 196.96995 254.622381 196.21865000000003 254.64855 C 195.36519 254.68543 194.51245000000003 254.707571 193.65615000000003 254.71105 C 193.18749000000003 254.708975 192.7178 254.754385 192.24995 254.7423 C 191.90550000000002 254.733389 191.56263 254.694082 191.21875 254.6798 C 189.50105 254.62261 187.78155 254.46782 186.06255 254.27355 C 178.68415 253.43969 171.31654999999998 251.41625 164.31255 247.92975 C 142.19555 236.91975000000002 129.48655 215.06475 129.34355 192.36775 L 40.31254999999999 192.36775 C 40.313560999999986 197.09395 40.53060999999999 201.84505000000001 41.00004999999999 206.58675 L 0.00004999999998744897 234.02474999999998 C 0.012069999999987448 234.07763699999998 0.05049999999998745 234.12811 0.06254999999998745 234.18099999999998 C 0.7746599999999875 237.3036 1.5605499999999874 240.4194 2.4375499999999874 243.52479999999997 C 3.3145499999999872 246.63009999999997 4.268849999999987 249.72349999999997 5.3125499999999874 252.80599999999998 C 6.356249999999988 255.8885 7.475349999999987 258.93919999999997 8.687549999999987 261.9935 C 9.567629999999987 264.2108 10.527949999999988 266.42269999999996 11.500049999999987 268.6185 L 60.62504999999999 267.2747 C 60.95353999999999 267.82988 61.35176999999999 268.34839999999997 61.68754999999999 268.8997 L 62.00004999999999 268.8997 C 64.40794999999999 272.8528 66.96724999999999 276.6749 69.68754999999999 280.3377 C 72.40784999999998 283.99989999999997 75.27454999999999 287.50759999999997 78.28134999999999 290.8687 L 61.59334999999999 336.6807 C 63.04334999999999 337.9453 64.48454999999998 339.2116 65.96834999999999 340.4307 C 68.43554999999999 342.4578 70.94354999999999 344.4371 73.49954999999999 346.3369 C 76.05564999999999 348.2368 78.67284999999998 350.06620000000004 81.31204999999999 351.8369 C 83.95134999999999 353.6077 86.62644999999999 355.322 89.34324999999998 356.9619 C 90.12052999999999 357.43114 90.89844999999998 357.88963 91.68704999999999 358.3369 L 130.68705 328.9929 C 131.25471 329.2418 131.83655 329.40763000000004 132.40585 329.64909 L 132.4996 329.58659 C 136.8048 331.41749 141.2028 333.02399 145.6556 334.46159 C 150.1087 335.89919 154.6143 337.14169 159.1866 338.18039 L 159.2491 338.33657999999997 C 159.271256 338.34158499999995 159.289414 338.36288599999995 159.3116 338.367891 L 173.3426 384.929891 C 175.316 385.133501 177.2675 385.378311 179.24880000000002 385.523581 C 182.4334 385.75722099999996 185.64210000000003 385.87801099999996 188.8426 385.961081 C 190.9832 386.016684 193.13150000000002 385.99941099999995 195.2801 385.992392 C 196.3557 385.980978 197.42510000000001 386.020285 198.4989 385.992392 C 201.6993 385.909323 204.8768 385.757102 208.0614 385.523582 C 209.07399999999998 385.44942399999996 210.0823 385.300622 211.0926 385.211082 L 225.0926 338.836082 C 235.2516 336.739282 245.1636 333.655782 254.6866 329.61738199999996 L 294.0616 359.21138199999996 C 295.3773 358.45772199999993 296.7004 357.745482 297.9991 356.96138199999996 C 300.716 355.32148199999995 303.3908 353.60708199999993 306.0303 351.83638199999996 C 308.6696 350.065682 311.2868 348.23628199999996 313.8428 346.33638199999996 C 316.3989 344.43658199999993 318.90680000000003 342.45728199999996 321.374 340.43018199999995 C 322.35441000000003 339.62452199999996 323.28560000000004 338.75878199999994 324.249 337.93018199999995 z M 142.47 298.649 C 141.1102 298.554823 139.7288 298.19752 138.4388 297.5553 C 133.27849999999998 294.9864 131.2157 288.7845 133.845 283.7433 C 136.4743 278.7016 142.8097 276.7056 147.97 279.2745 C 153.1303 281.8433 155.1931 288.0141 152.5638 293.0555 C 150.59179999999998 296.8368 146.5494 298.9319 142.4698 298.6492 z M 291.35 251.368 C 289.9902 251.273792 288.60880000000003 250.91646 287.3188 250.2742 C 282.15840000000003 247.7053 280.0957 241.5346 282.725 236.4932 C 285.3544 231.4515 291.6897 229.4555 296.85 232.0244 C 302.01030000000003 234.59330000000003 304.0731 240.7639 301.4438 245.80540000000002 C 299.47180000000003 249.5867 295.4294 251.65050000000002 291.3498 251.36790000000002 z" stroke-linecap="round" />
</g>
		<g transform="matrix(1 0 0 1 0.17 -1)"  >
<path style="stroke: none; stroke-width: 15.97; stroke-dasharray: none; stroke-linecap: butt; stroke-dashoffset: 0; stroke-linejoin: round; stroke-miterlimit: 4; fill: rgb(255,255,255); fill-rule: nonzero; opacity: 1;" vector-effect="non-scaling-stroke"  transform=" translate(-193.71, -192.01)" d="M 193.73 98.7 C 142.33999999999997 98.7 100.39899999999999 140.599 100.39899999999999 191.989 C 100.39899999999999 243.37900000000002 142.33999999999997 285.32 193.73 285.32 C 245.12 285.32 287.019 243.379 287.019 191.98899999999998 C 287.019 140.59899999999996 245.12 98.69999999999997 193.73000000000002 98.69999999999997 z M 193.73 120.001 C 233.59199999999998 120.001 265.719 152.12800000000001 265.719 191.99 C 265.719 231.852 233.59199999999998 264.02 193.73 264.02 C 153.868 264.02 121.69999999999999 231.85199999999998 121.69999999999999 191.98999999999998 C 121.69999999999999 152.128 153.868 120.00099999999998 193.73 120.00099999999998 z" stroke-linecap="round" />
</g>
		<g transform="matrix(1 0 0 1 0.17 -1.01)"  >
<path style="stroke: none; stroke-width: 11.24; stroke-dasharray: none; stroke-linecap: butt; stroke-dashoffset: 0; stroke-linejoin: round; stroke-miterlimit: 4; fill: rgb(211,0,255); fill-rule: nonzero; opacity: 1;" vector-effect="non-scaling-stroke"  transform=" translate(-193.71, -191.99)" d="M 193.73 101.83 C 144.047 101.83 103.567 142.309 103.567 191.993 C 103.567 241.677 144.047 282.156 193.73 282.156 C 243.414 282.156 283.852 241.67700000000002 283.852 191.993 C 283.852 142.30899999999997 243.414 101.83 193.72999999999996 101.83 z M 193.73 116.836 C 235.298 116.836 268.887 150.425 268.887 191.993 C 268.887 233.56099999999998 235.298 267.15 193.73000000000002 267.15 C 152.16200000000003 267.15 118.57400000000001 233.56099999999998 118.57400000000001 191.993 C 118.57400000000001 150.425 152.162 116.836 193.73000000000002 116.836 z" stroke-linecap="round" />
</g>
</g>
</g>
</svg>